<?xml version="1.0" encoding="utf-8"?>
<!-- Generator: Adobe Illustrator 25.0.0, SVG Export Plug-In . SVG Version: 6.00 Build 0)  -->
<svg version="1.1" id="Capa_1" xmlns="http://www.w3.org/2000/svg" xmlns:xlink="http://www.w3.org/1999/xlink" x="0px" y="0px"
	 viewBox="0 0 532.96 173.3" style="enable-background:new 0 0 532.96 173.3;" xml:space="preserve">
<style type="text/css">
	.st0{fill:url(#SVGID_1_);}
	.st1{fill:url(#SVGID_2_);}
	.st2{fill:url(#SVGID_3_);}
	.st3{fill:url(#SVGID_4_);}
	.st4{fill:url(#SVGID_5_);}
	.st5{fill:url(#SVGID_6_);}
	.st6{fill:url(#SVGID_7_);}
	.st7{fill:#FFFFFF;}
	.st8{font-family:'Raleway-Bold';}
	.st9{font-size:63.0064px;}
	.st10{letter-spacing:6;}
	.st11{fill:url(#SVGID_8_);}
	.st12{fill:none;stroke:#00FFFF;stroke-miterlimit:10;stroke-dasharray:11.6934,11.6934;}
</style>
<g>
	<linearGradient id="SVGID_1_" gradientUnits="userSpaceOnUse" x1="171.3489" y1="118.6376" x2="202.5827" y2="118.6376">
		<stop  offset="0" style="stop-color:#00FBDB"/>
		<stop  offset="1" style="stop-color:#00CBE9"/>
	</linearGradient>
	<path class="st0" d="M171.35,142.64v-48h31.23v3.11H174.8v19.07h23.59v2.98H174.8v22.85H171.35z"/>
	<linearGradient id="SVGID_2_" gradientUnits="userSpaceOnUse" x1="218.2661" y1="118.6376" x2="221.7139" y2="118.6376">
		<stop  offset="0" style="stop-color:#00FBDB"/>
		<stop  offset="1" style="stop-color:#00CBE9"/>
	</linearGradient>
	<path class="st1" d="M218.27,142.64v-48h3.45v48H218.27z"/>
	<linearGradient id="SVGID_3_" gradientUnits="userSpaceOnUse" x1="241.0494" y1="118.6376" x2="280.8011" y2="118.6376">
		<stop  offset="0" style="stop-color:#00FBDB"/>
		<stop  offset="1" style="stop-color:#00CBE9"/>
	</linearGradient>
	<path class="st2" d="M244.5,101.13v41.51h-3.45v-48h2.64l33.67,42.25V94.64h3.45v48h-3.18L244.5,101.13z"/>
	<linearGradient id="SVGID_4_" gradientUnits="userSpaceOnUse" x1="294.7271" y1="118.6376" x2="338.4001" y2="118.6376">
		<stop  offset="0" style="stop-color:#00FBDB"/>
		<stop  offset="1" style="stop-color:#00CBE9"/>
	</linearGradient>
	<path class="st3" d="M315.14,94.64h2.97l20.28,48h-3.65l-6.69-15.82h-22.92l-6.69,15.82h-3.72L315.14,94.64z M327.11,123.98
		l-10.48-25.15l-10.68,25.15H327.11z"/>
	<linearGradient id="SVGID_5_" gradientUnits="userSpaceOnUse" x1="352.4607" y1="118.6376" x2="392.2124" y2="118.6376">
		<stop  offset="0" style="stop-color:#00FBDB"/>
		<stop  offset="1" style="stop-color:#00CBE9"/>
	</linearGradient>
	<path class="st4" d="M355.91,101.13v41.51h-3.45v-48h2.64l33.67,42.25V94.64h3.45v48h-3.18L355.91,101.13z"/>
	<linearGradient id="SVGID_6_" gradientUnits="userSpaceOnUse" x1="408.1673" y1="118.7055" x2="449.6096" y2="118.7055">
		<stop  offset="0" style="stop-color:#00FBDB"/>
		<stop  offset="1" style="stop-color:#00CBE9"/>
	</linearGradient>
	<path class="st5" d="M408.17,118.3c0-2.88,0.51-5.76,1.52-8.62c1.01-2.86,2.49-5.42,4.43-7.67c1.94-2.25,4.31-4.09,7.13-5.51
		c2.82-1.42,6.03-2.13,9.63-2.13c4.28,0,7.93,0.98,10.95,2.94c3.02,1.96,5.27,4.47,6.76,7.54l-2.84,1.62
		c-0.86-1.67-1.86-3.06-3.01-4.19c-1.15-1.13-2.39-2.04-3.72-2.74c-1.33-0.7-2.72-1.21-4.16-1.52c-1.44-0.31-2.86-0.47-4.26-0.47
		c-3.07,0-5.77,0.62-8.11,1.86c-2.34,1.24-4.33,2.85-5.95,4.83c-1.62,1.98-2.85,4.22-3.68,6.73c-0.83,2.5-1.25,5.01-1.25,7.54
		c0,2.84,0.5,5.54,1.49,8.11c0.99,2.57,2.34,4.83,4.06,6.79c1.71,1.96,3.74,3.53,6.08,4.7c2.34,1.17,4.87,1.76,7.57,1.76
		c1.44,0,2.93-0.18,4.46-0.54c1.53-0.36,3-0.92,4.39-1.69c1.4-0.77,2.7-1.75,3.92-2.94c1.22-1.19,2.23-2.6,3.04-4.23l2.98,1.42
		c-0.81,1.8-1.92,3.4-3.31,4.8c-1.4,1.4-2.95,2.57-4.66,3.51c-1.71,0.95-3.53,1.66-5.44,2.13c-1.92,0.47-3.8,0.71-5.65,0.71
		c-3.29,0-6.3-0.72-9.02-2.16c-2.73-1.44-5.08-3.32-7.07-5.64c-1.98-2.32-3.53-4.96-4.63-7.91
		C408.72,124.37,408.17,121.37,408.17,118.3z"/>
	<linearGradient id="SVGID_7_" gradientUnits="userSpaceOnUse" x1="464.8874" y1="118.6376" x2="496.8644" y2="118.6376">
		<stop  offset="0" style="stop-color:#00FBDB"/>
		<stop  offset="1" style="stop-color:#00CBE9"/>
	</linearGradient>
	<path class="st6" d="M496.86,139.53v3.11h-31.98v-48h31.37v3.11h-27.92v18.86h24.41v2.98h-24.41v19.94H496.86z"/>
</g>
<text transform="matrix(1 0 0 1 166.9998 85.8703)" class="st7 st8 st9 st10">Peacock</text>
<g>
	<g id="logo_2_">
		<linearGradient id="SVGID_8_" gradientUnits="userSpaceOnUse" x1="83.7951" y1="-16.9063" x2="77.8015" y2="145.4668">
			<stop  offset="0" style="stop-color:#00FBDB"/>
			<stop  offset="1" style="stop-color:#00CBE9"/>
		</linearGradient>
		<path class="st11" d="M112.93,136.49c-9.46,6.21-20.78,9.82-32.94,9.82s-23.48-3.61-32.94-9.82c8.65-5.74,15.73-13.66,20.45-22.97
			c4.14-8.16,6.47-17.39,6.47-27.16c1.1,3.23,6.01,9.82,6.01,9.82s4.91-6.59,6.01-9.82c0,9.78,2.33,19,6.47,27.16
			C97.2,122.83,104.28,130.75,112.93,136.49z M69.97,76.15c0,5.54,4.49,13.43,10.02,13.43c5.54,0,10.02-7.89,10.02-13.43
			c0-5.33-4.17-9.68-9.42-9.99v-2.67c0.89-1.86,2.68-3.2,4.81-3.44c-1.21-1.33-2.91-2.21-4.81-2.36v-2
			c0.88-1.34,2.41-4.13,2.41-7.37c0-4.54-3.01-8.22-3.01-8.22s-3.01,3.68-3.01,8.22c0,3.24,1.53,6.03,2.41,7.37v2
			c-1.9,0.15-3.6,1.03-4.81,2.36c2.13,0.25,3.92,1.59,4.81,3.44v2.67C74.14,66.47,69.97,70.82,69.97,76.15z M65.43,114.45
			c-21.33-5.32-38.18-22.05-43.67-43.31l0,0c-1.24,4.81-1.9,9.85-1.9,15.04c0,19.01,8.82,35.96,22.6,46.97
			C51.86,129.33,59.85,122.77,65.43,114.45z M138.22,71.13L138.22,71.13c-5.49,21.26-22.34,37.98-43.66,43.31
			c5.58,8.32,13.56,14.89,22.96,18.71c13.77-11.02,22.6-27.96,22.6-46.97C140.12,80.98,139.46,75.94,138.22,71.13z M95.02,112.95
			c20.89-6.42,36.08-25.85,36.08-48.84c0-4.02-0.48-7.93-1.36-11.68c-4.4-6.48-10.02-12.06-16.55-16.39
			c-9.52-6.32-20.93-10-33.21-10c6.01,0,36.08,34.23,36.08,54.12c0,14.49-8.59,27-20.94,32.73c12.2-5.73,18.54-18.25,18.54-32.73
			C113.66,66.13,86,32,79.99,32c-10.02,0-33.67,34.74-33.67,48.16c0,14.49,6.33,27,18.54,32.74c-12.35-5.73-20.94-18.25-20.94-32.74
			c0-19.89,26.06-54.12,36.08-54.12c-12.28,0-23.69,3.68-33.21,10c-6.53,4.33-12.15,9.91-16.55,16.39
			c-0.88,3.75-1.36,7.66-1.36,11.68c0,23,15.2,42.42,36.09,48.84c-0.02-0.01-0.05-0.02-0.07-0.03c0.39,0.18,0.79,0.36,1.19,0.53
			c0.1-0.16,0.2-0.31,0.3-0.47c-9.76-4.97-16.46-15.11-16.46-26.8c0-12.07,7.15-22.49,17.44-27.27c3.09-1.44,6.47-2.36,10.02-2.67
			c0.06-0.02,0.12-0.04,0.19-0.06c-1.01-1.66-2.39-4.54-2.39-7.87c0-5.12,3.27-10.39,3.41-10.56l1.4-2.31l1.4,2.31
			c0.14,0.17,3.42,5.44,3.42,10.56c0,3.33-1.38,6.21-2.39,7.87c0.06,0.02,0.12,0.04,0.19,0.06c3.55,0.31,6.93,1.23,10.02,2.67
			c10.28,4.78,17.44,15.21,17.44,27.27c0,11.68-6.7,21.82-16.46,26.8c0.1,0.16,0.2,0.32,0.3,0.47c0,0,0,0,0,0
			c0.4-0.17,0.8-0.34,1.19-0.53C95.06,112.93,95.04,112.94,95.02,112.95z"/>
	</g>
	<g>
		<circle class="st12" cx="80.9" cy="87.04" r="67"/>
	</g>
</g>
</svg>
