<?xml version="1.0" encoding="utf-8"?>
<!-- Generator: Adobe Illustrator 24.3.0, SVG Export Plug-In . SVG Version: 6.00 Build 0)  -->
<svg version="1.1" id="Capa_1" xmlns="http://www.w3.org/2000/svg" xmlns:xlink="http://www.w3.org/1999/xlink" x="0px" y="0px"
	 viewBox="0 0 607 150" style="enable-background:new 0 0 607 150;" xml:space="preserve">
<style type="text/css">
	.st0{fill-rule:evenodd;clip-rule:evenodd;fill:url(#SVGID_1_);}
	.st1{fill-rule:evenodd;clip-rule:evenodd;fill:url(#SVGID_2_);}
	.st2{fill:#FFFFFF;}
	.st3{fill:#34BBFF;}
	.st4{fill:url(#SVGID_3_);stroke:#28EEDB;stroke-width:0.25;stroke-linecap:round;stroke-linejoin:round;stroke-miterlimit:10;}
</style>
<g>
	<g>
		<linearGradient id="SVGID_1_" gradientUnits="userSpaceOnUse" x1="73.1531" y1="130.8779" x2="81.4414" y2="-18.8902">
			<stop  offset="0.4698" style="stop-color:#28EEDB"/>
			<stop  offset="0.5107" style="stop-color:#34BBFF"/>
			<stop  offset="1" style="stop-color:#34BBFF"/>
		</linearGradient>
		<path class="st0" d="M66.67,92.2c6.31-7.04,14.97-15.48,18.06-24.66c4.62-13.65-1.25-22.09-8.74-25.03
			c5.21,2.42,8.44,10.35,1.54,21.28c0.81,2.35,1.03,5.06,0.37,8.22C76.5,78.99,71.37,86.77,66.67,92.2L66.67,92.2z M61.24,116.86
			c5.5,16.36,16.37,24.22,24.37,20.4c-4.77-1.1-9.32-3.96-13.06-7.05C68.06,126.48,64.32,121.86,61.24,116.86L61.24,116.86z
			 M88.32,136.75c6.97,0.73,12.04-3.16,11.67-11.6c-8.66,5.43-20.4,3.01-35.74-8.96c6.83,7.56,16.37,15.63,26.28,15.71h1.84
			l-1.03,1.54C90.45,134.7,89.49,135.8,88.32,136.75L88.32,136.75z M59.99,112.75c7.7,14.38,18.49,22.24,26.94,23.78
			c1.25-0.81,2.49-2.06,3.52-3.67C79.73,132.79,68.72,123.69,59.99,112.75L59.99,112.75z M116.5,104.75
			c8.88-7.56,10.42-18.72,1.54-27.67c-0.15,14.68-19.08,30.09-52.62,30.16c6.75,1.62,14.16,2.13,21.06,1.54
			c10.64-0.8,22.46-4.48,29.36-13.21l1.69-2.06l0.07,2.64C117.75,99.1,117.46,101.96,116.5,104.75L116.5,104.75z M66.81,110.4
			c20.77,11.23,40.37,9.25,47.26-2.64C99.47,117.38,82.52,116.05,66.81,110.4L66.81,110.4z M115.04,105.93
			c1.17-2.79,1.76-6.02,1.61-9.69c-11.82,14.97-38.38,16.29-55.19,10.94C78.19,114.44,98.15,118.04,115.04,105.93L115.04,105.93z
			 M69.53,100.64c30.53-8.36,55.63-33.32,49.32-53.21c-3.08,11.08-10.05,21.65-17.76,30.02C92.21,87.07,81.42,94.99,69.53,100.64
			L69.53,100.64z M118.63,44.13c3.6-17.32-4.4-31.12-27.67-30.31c22.16,11.67,14.16,49.03-22.09,83.74
			c11.38-7.85,22.16-17.47,30.02-28.62c6.75-9.54,11.74-21.13,10.57-33.1l-0.22-2.35l1.91,1.47
			C114.23,37.53,116.87,40.53,118.63,44.13L118.63,44.13z M118.26,45.74c-1.47-3.6-4.04-6.97-7.78-9.98
			c2.13,21.65-15.41,46.31-46.24,66.13C93.53,89.78,113.27,65.71,118.26,45.74L118.26,45.74z M96.25,40.31
			c-4.55-40.66-56.51-34.42-49.32-5.5c2.79-4.62,6.97-7.63,11.74-9.1l0.96-1.17c1.17-1.32,2.64-2.5,4.18-3.38
			c5.94-3.3,13.14-2.42,18.86,0.96C89.35,26.15,93.75,32.97,96.25,40.31L96.25,40.31z M59.4,26.44c-1.98,2.86-3.16,6.68-3.08,11.3
			c9.54-8.81,25.1-7.93,35.96,2.27c-3.38-4.62-7.78-8.44-12.92-11.08c-5.72-2.86-12.48-4.18-18.79-2.72L59.4,26.44z M96.61,44.86
			C90.15,19.4,69.24,14.92,60.36,25.19C72.54,22.41,88.03,29.09,96.61,44.86L96.61,44.86z M49.71,42.29
			c-5.5-1.61-11.74-1.98-16.95-0.07c-6.68,2.42-3.01,11.3,3.52,7.92l-0.07-0.37c-0.51-2.28,0.81-4.26,2.57-5.58
			C41.93,42.07,45.9,41.78,49.71,42.29L49.71,42.29z M37.53,50.52c1.18,1.98,4.26,2.86,7.41,0.07c2.42-2.2,4.92-4.04,7.56-5.06
			c-5.06,0.15-10.86,2.49-14.83,4.92L37.53,50.52z M55.81,44.79L55.81,44.79L55.81,44.79L55.81,44.79z M55.81,44.79h-0.07
			c-4.4-1.47-11.45-3.16-16.37,0.3c-1.98,1.32-2.57,3.08-2.2,4.48C42.81,46.19,50.3,43.69,55.81,44.79L55.81,44.79z M76.8,64.9
			c-3.08,4.55-7.85,9.62-14.9,14.97c-19.82,15.12-23.48,32.07-0.88,46.97C44.36,107.54,73.2,89.86,76.94,71.8
			C77.46,69.52,77.46,67.17,76.8,64.9L76.8,64.9z M55.37,69.82c1.98-16.81,17.17-16.52,21.65-7.12c2.28-3.67,4.04-8.22,3.3-12.55
			c-2.2-13.36-24.88-10.86-22.53,5.8C54.85,59.91,53.97,65.05,55.37,69.82L55.37,69.82z"/>
		<linearGradient id="SVGID_2_" gradientUnits="userSpaceOnUse" x1="72.8161" y1="135.7296" x2="80.4238" y2="-1.7406">
			<stop  offset="0" style="stop-color:#34BBFF"/>
			<stop  offset="0.4698" style="stop-color:#28EEDB"/>
			<stop  offset="0.6843" style="stop-color:#34BBFF"/>
		</linearGradient>
		<path class="st1" d="M66.58,92.52c6.31-7.04,14.97-15.48,18.06-24.66c4.62-13.65-1.25-22.09-8.74-25.03
			c5.21,2.42,8.44,10.35,1.54,21.28c0.81,2.35,1.03,5.06,0.37,8.22C76.42,79.31,71.28,87.08,66.58,92.52L66.58,92.52z M61.15,117.18
			c5.5,16.36,16.37,24.22,24.37,20.4c-4.77-1.1-9.32-3.96-13.06-7.05C67.98,126.79,64.23,122.17,61.15,117.18L61.15,117.18z
			 M88.23,137.07c6.97,0.73,12.04-3.16,11.67-11.6c-8.66,5.43-20.4,3.01-35.74-8.96c6.83,7.56,16.37,15.63,26.28,15.71h1.84
			l-1.03,1.54C90.36,135.01,89.41,136.11,88.23,137.07L88.23,137.07z M59.9,113.07c7.7,14.38,18.49,22.24,26.94,23.78
			c1.25-0.81,2.49-2.06,3.52-3.67C79.65,133.1,68.64,124,59.9,113.07L59.9,113.07z M116.42,105.07c8.88-7.56,10.42-18.72,1.54-27.67
			c-0.15,14.68-19.08,30.09-52.62,30.16c6.75,1.62,14.16,2.13,21.06,1.54c10.64-0.8,22.46-4.48,29.36-13.21l1.69-2.06l0.07,2.64
			C117.66,99.42,117.37,102.28,116.42,105.07L116.42,105.07z M66.73,110.72c20.77,11.23,40.37,9.25,47.26-2.64
			C99.39,117.69,82.43,116.37,66.73,110.72L66.73,110.72z M114.95,106.24c1.17-2.79,1.76-6.02,1.61-9.69
			c-11.82,14.97-38.38,16.29-55.19,10.94C78.1,114.76,98.07,118.35,114.95,106.24L114.95,106.24z M69.44,100.96
			c30.53-8.36,55.63-33.32,49.32-53.21C115.68,58.83,108.71,69.4,101,77.76C92.12,87.38,81.33,95.31,69.44,100.96L69.44,100.96z
			 M118.54,44.44c3.6-17.32-4.4-31.12-27.67-30.31c22.16,11.67,14.16,49.03-22.09,83.74c11.38-7.85,22.16-17.47,30.02-28.62
			c6.75-9.54,11.74-21.13,10.57-33.1l-0.22-2.35l1.91,1.47C114.14,37.84,116.78,40.85,118.54,44.44L118.54,44.44z M118.18,46.06
			c-1.47-3.6-4.04-6.97-7.78-9.98c2.13,21.65-15.41,46.31-46.24,66.13C93.44,90.09,113.19,66.02,118.18,46.06L118.18,46.06z
			 M96.16,40.63c-4.55-40.66-56.51-34.42-49.32-5.5c2.79-4.62,6.97-7.63,11.74-9.1l0.96-1.17c1.17-1.32,2.64-2.5,4.18-3.38
			c5.94-3.3,13.14-2.42,18.86,0.96C89.26,26.46,93.66,33.29,96.16,40.63L96.16,40.63z M59.31,26.76c-1.98,2.86-3.16,6.68-3.08,11.3
			c9.54-8.81,25.1-7.93,35.96,2.27c-3.38-4.62-7.78-8.44-12.92-11.08c-5.72-2.86-12.48-4.18-18.79-2.72L59.31,26.76z M96.53,45.18
			c-6.46-25.47-27.38-29.94-36.26-19.67C72.45,22.72,87.94,29.4,96.53,45.18L96.53,45.18z M49.63,42.61
			c-5.5-1.61-11.74-1.98-16.95-0.07c-6.68,2.42-3.01,11.3,3.52,7.92l-0.07-0.37c-0.51-2.28,0.81-4.26,2.57-5.58
			C41.85,42.39,45.81,42.1,49.63,42.61L49.63,42.61z M37.44,50.83c1.18,1.98,4.26,2.86,7.41,0.07c2.42-2.2,4.92-4.04,7.56-5.06
			c-5.06,0.15-10.86,2.49-14.83,4.92L37.44,50.83z M55.72,45.1L55.72,45.1L55.72,45.1L55.72,45.1z M55.72,45.1h-0.07
			c-4.4-1.47-11.45-3.16-16.37,0.3c-1.98,1.32-2.57,3.08-2.2,4.48C42.73,46.5,50.22,44,55.72,45.1L55.72,45.1z M76.71,65.21
			c-3.08,4.55-7.85,9.62-14.9,14.97c-19.82,15.12-23.48,32.07-0.88,46.97c-16.66-19.3,12.18-36.99,15.93-55.04
			C77.37,69.84,77.37,67.49,76.71,65.21L76.71,65.21z M55.28,70.13c1.98-16.81,17.17-16.52,21.65-7.12
			c2.28-3.67,4.04-8.22,3.3-12.55c-2.2-13.36-24.88-10.86-22.53,5.8C54.77,60.22,53.88,65.36,55.28,70.13L55.28,70.13z"/>
	</g>
	<g>
		<g>
			<g>
				<path class="st2" d="M145.42,77.48V18.44h25.03c2.72,0,5.22,0.57,7.53,1.7c2.3,1.14,4.28,2.63,5.95,4.49
					c1.66,1.86,2.97,3.96,3.91,6.32c0.94,2.36,1.41,4.73,1.41,7.11c0,2.49-0.44,4.92-1.33,7.28c-0.89,2.36-2.13,4.45-3.74,6.28
					c-1.61,1.83-3.55,3.3-5.82,4.41c-2.27,1.11-4.77,1.66-7.48,1.66H156.9v19.79H145.42z M156.9,47.63h13.31
					c2.11,0,3.87-0.86,5.28-2.58c1.41-1.72,2.12-4.05,2.12-6.98c0-1.5-0.22-2.84-0.67-4.03c-0.44-1.19-1.03-2.2-1.75-3.04
					c-0.72-0.83-1.57-1.46-2.54-1.87c-0.97-0.42-1.95-0.62-2.95-0.62H156.9V47.63z"/>
				<path class="st2" d="M246.54,67.42v10.06h-41V18.44h40.25V28.5h-28.77v14.22h24.86v9.31h-24.86v15.38H246.54z"/>
				<path class="st2" d="M280.63,18.44h10.14l22.45,59.04h-11.81l-5.49-14.72h-20.62l-5.41,14.72H258.1L280.63,18.44z M293.85,54.69
					l-8.15-23.2l-8.48,23.2H293.85z"/>
				<path class="st2" d="M322.29,47.54c0-3.6,0.65-7.16,1.96-10.69c1.3-3.52,3.2-6.67,5.7-9.44c2.49-2.77,5.54-5.02,9.15-6.74
					c3.6-1.72,7.71-2.58,12.31-2.58c5.43,0,10.13,1.19,14.09,3.58c3.96,2.38,6.92,5.49,8.86,9.31l-8.81,6.07
					c-0.78-1.66-1.72-3.06-2.83-4.2c-1.11-1.14-2.3-2.04-3.58-2.7c-1.28-0.67-2.61-1.15-3.99-1.46c-1.38-0.3-2.74-0.46-4.07-0.46
					c-2.88,0-5.39,0.58-7.53,1.75s-3.91,2.68-5.32,4.53c-1.41,1.86-2.48,3.96-3.2,6.32c-0.72,2.36-1.08,4.7-1.08,7.03
					c0,2.61,0.42,5.11,1.25,7.53c0.83,2.41,2.01,4.53,3.54,6.36c1.52,1.83,3.35,3.3,5.49,4.41c2.13,1.11,4.48,1.66,7.03,1.66
					c1.33,0,2.72-0.17,4.16-0.5s2.81-0.86,4.12-1.58c1.3-0.72,2.51-1.65,3.62-2.79c1.11-1.14,2-2.51,2.66-4.12l9.4,5.41
					c-0.94,2.22-2.29,4.17-4.03,5.86c-1.75,1.69-3.71,3.12-5.9,4.28c-2.19,1.17-4.53,2.05-7.03,2.66s-4.94,0.92-7.32,0.92
					c-4.21,0-8.07-0.89-11.56-2.66c-3.49-1.77-6.5-4.09-9.02-6.94c-2.52-2.85-4.49-6.1-5.9-9.73
					C323,55.01,322.29,51.31,322.29,47.54z"/>
				<path class="st2" d="M415.84,77.89c-4.32,0-8.25-0.84-11.77-2.54c-3.52-1.69-6.54-3.94-9.06-6.74c-2.52-2.8-4.48-6-5.86-9.6
					c-1.39-3.6-2.08-7.29-2.08-11.06c0-3.94,0.73-7.71,2.2-11.31c1.47-3.6,3.49-6.79,6.07-9.56c2.58-2.77,5.64-4.98,9.19-6.61
					c3.55-1.63,7.4-2.45,11.56-2.45c4.27,0,8.16,0.87,11.68,2.62c3.52,1.75,6.53,4.03,9.02,6.86s4.43,6.04,5.82,9.65
					c1.38,3.6,2.08,7.26,2.08,10.98c0,3.94-0.72,7.69-2.16,11.27c-1.44,3.58-3.44,6.74-5.99,9.48c-2.55,2.74-5.6,4.93-9.15,6.57
					C423.85,77.08,420,77.89,415.84,77.89z M398.71,47.96c0,2.55,0.39,5.02,1.16,7.4c0.78,2.38,1.9,4.49,3.37,6.32
					c1.47,1.83,3.27,3.3,5.4,4.41c2.13,1.11,4.56,1.66,7.28,1.66c2.77,0,5.22-0.57,7.36-1.71c2.13-1.14,3.94-2.65,5.41-4.53
					c1.47-1.88,2.58-4,3.33-6.36c0.75-2.36,1.12-4.75,1.12-7.19c0-2.55-0.4-5.02-1.21-7.4c-0.8-2.38-1.94-4.49-3.41-6.32
					c-1.47-1.83-3.27-3.28-5.41-4.37c-2.13-1.08-4.53-1.62-7.19-1.62c-2.77,0-5.24,0.57-7.4,1.7c-2.16,1.14-3.96,2.63-5.4,4.49
					c-1.44,1.86-2.54,3.96-3.29,6.32C399.09,43.12,398.71,45.52,398.71,47.96z"/>
				<path class="st2" d="M458.25,47.54c0-3.6,0.65-7.16,1.96-10.69c1.3-3.52,3.2-6.67,5.7-9.44c2.49-2.77,5.54-5.02,9.15-6.74
					c3.6-1.72,7.71-2.58,12.31-2.58c5.43,0,10.13,1.19,14.09,3.58c3.96,2.38,6.92,5.49,8.86,9.31l-8.81,6.07
					c-0.78-1.66-1.72-3.06-2.83-4.2c-1.11-1.14-2.3-2.04-3.58-2.7c-1.28-0.67-2.61-1.15-3.99-1.46c-1.38-0.3-2.74-0.46-4.07-0.46
					c-2.88,0-5.39,0.58-7.53,1.75s-3.91,2.68-5.32,4.53c-1.41,1.86-2.48,3.96-3.2,6.32c-0.72,2.36-1.08,4.7-1.08,7.03
					c0,2.61,0.42,5.11,1.25,7.53c0.83,2.41,2.01,4.53,3.54,6.36c1.52,1.83,3.35,3.3,5.49,4.41c2.13,1.11,4.48,1.66,7.03,1.66
					c1.33,0,2.72-0.17,4.16-0.5s2.81-0.86,4.12-1.58c1.3-0.72,2.51-1.65,3.62-2.79c1.11-1.14,2-2.51,2.66-4.12l9.4,5.41
					c-0.94,2.22-2.29,4.17-4.03,5.86c-1.75,1.69-3.71,3.12-5.9,4.28c-2.19,1.17-4.53,2.05-7.03,2.66s-4.94,0.92-7.32,0.92
					c-4.21,0-8.07-0.89-11.56-2.66c-3.49-1.77-6.5-4.09-9.02-6.94c-2.52-2.85-4.49-6.1-5.9-9.73
					C458.96,55.01,458.25,51.31,458.25,47.54z"/>
				<path class="st2" d="M527.19,77.48V18.52h11.47v28.02l24.78-28.11h12.64l-22.62,26.19l24.03,32.85h-12.89l-18.38-25.53
					l-7.57,7.9v17.63H527.19z"/>
			</g>
			<g>
				<path class="st3" d="M145.01,133.87V82.38h33.5v3.34h-29.8v20.45h25.31v3.19h-25.31v24.51H145.01z"/>
				<path class="st3" d="M195.34,133.87V82.38h3.7v51.49H195.34z"/>
				<path class="st3" d="M223.48,89.34v44.53h-3.7V82.38h2.83l36.11,45.32V82.38h3.7v51.49h-3.41L223.48,89.34z"/>
				<path class="st3" d="M299.26,82.38h3.19l21.76,51.49h-3.92l-7.18-16.97h-24.58l-7.18,16.97h-3.99L299.26,82.38z M312.09,113.85
					l-11.24-26.98l-11.46,26.98H312.09z"/>
				<path class="st3" d="M342.98,89.34v44.53h-3.7V82.38h2.83l36.11,45.32V82.38h3.7v51.49h-3.41L342.98,89.34z"/>
				<path class="st3" d="M399.04,107.76c0-3.09,0.54-6.17,1.63-9.25c1.09-3.07,2.67-5.81,4.75-8.23c2.08-2.42,4.63-4.39,7.65-5.91
					c3.02-1.52,6.46-2.28,10.33-2.28c4.59,0,8.51,1.05,11.75,3.15c3.24,2.1,5.66,4.8,7.25,8.09l-3.04,1.74
					c-0.92-1.79-1.99-3.29-3.23-4.5s-2.56-2.19-3.99-2.94c-1.43-0.75-2.91-1.29-4.46-1.63s-3.07-0.51-4.57-0.51
					c-3.29,0-6.19,0.66-8.7,1.99c-2.52,1.33-4.64,3.06-6.38,5.19s-3.06,4.53-3.95,7.21s-1.34,5.38-1.34,8.09
					c0,3.04,0.53,5.95,1.6,8.7c1.06,2.76,2.51,5.19,4.35,7.29c1.84,2.1,4.01,3.78,6.53,5.04c2.51,1.26,5.22,1.88,8.12,1.88
					c1.54,0,3.14-0.19,4.79-0.58c1.64-0.38,3.21-0.99,4.71-1.81c1.5-0.82,2.9-1.87,4.21-3.15c1.3-1.28,2.39-2.79,3.26-4.53
					l3.19,1.52c-0.87,1.94-2.05,3.65-3.55,5.15c-1.5,1.5-3.17,2.76-5,3.77s-3.78,1.78-5.84,2.29s-4.07,0.76-6.05,0.76
					c-3.53,0-6.76-0.77-9.68-2.32c-2.93-1.54-5.45-3.56-7.58-6.05c-2.13-2.49-3.78-5.32-4.97-8.48
					C399.63,114.28,399.04,111.05,399.04,107.76z"/>
				<path class="st3" d="M494.18,130.53v3.34h-34.3V82.38h33.65v3.34h-29.95v20.23h26.18v3.19h-26.18v21.39H494.18z"/>
			</g>
		</g>
		<linearGradient id="SVGID_3_" gradientUnits="userSpaceOnUse" x1="602.3033" y1="110.3691" x2="507.2864" y2="109.4598">
			<stop  offset="0" style="stop-color:#34BBFF"/>
			<stop  offset="0.4698" style="stop-color:#28EEDB"/>
			<stop  offset="0.6843" style="stop-color:#34BBFF"/>
		</linearGradient>
		<rect x="504.75" y="106.39" class="st4" width="73.12" height="6.8"/>
	</g>
</g>
</svg>
